<svg xmlns="http://www.w3.org/2000/svg" width="95" height="95" viewBox="0 0 95 95">
  <g fill="#FF7048" fill-rule="evenodd" transform="translate(1)">
    <path fill-rule="nonzero" d="M44.7599421,5.56439396 L44.7599421,5.56439396 L44.7599421,5.56439396 L9.77554983,25.6463782 C9.38952321,25.8679678 8.7593325,26.953039 8.7593325,27.3963866 L8.7593325,67.560355 C8.7593325,68.0035343 9.38937667,69.0886896 9.77554983,69.3103634 L44.7599421,89.3923476 C45.1459688,89.6139373 46.4062036,89.6140214 46.7923768,89.3923476 L81.7767691,69.3103634 C82.1627957,69.0887737 82.7929864,68.0037026 82.7929864,67.560355 L82.7929864,27.3963866 C82.7929864,26.9532072 82.1629423,25.868052 81.7767691,25.6463782 L46.7923768,5.56439396 C46.4063502,5.34280427 45.1461153,5.34272016 44.7599421,5.56439396 L44.7599421,5.56439396 Z M42.1361374,1.04599009 C44.1464661,-0.107992748 47.4070785,-0.107289218 49.4161815,1.04599009 L84.4005738,21.1279743 C86.4109025,22.2819571 88.0405958,25.089828 88.0405958,27.3963866 L88.0405958,67.560355 C88.0405958,69.8683206 86.4096769,72.675488 84.4005738,73.8287673 L49.4161815,93.9107515 C47.4058528,95.0647343 44.1452405,95.0640308 42.1361374,93.9107515 L7.15174513,73.8287673 C5.14141647,72.6747844 3.51172309,69.8669136 3.51172309,67.560355 L3.51172309,27.3963866 C3.51172309,25.0884209 5.14264208,22.2812536 7.15174513,21.1279743 L42.1361374,1.04599009 L42.1361374,1.04599009 Z"/>
    <path d="M9.41935886,60.8697061 C4.2587408,60.8697061 0.0360156974,56.9232403 0.0360156974,52.1002405 L0.0360156974,40.4217129 C0.0360156974,35.5976818 4.2587408,31.6522472 9.41935886,31.6522472 L83.4389743,31.6522472 C88.5995923,31.6522472 92.8223174,35.5976818 92.8223174,40.4217129 L92.8223174,52.1002405 C92.8223174,56.9232403 88.5995923,60.8697061 83.4389743,60.8697061 L9.41935886,60.8697061 Z M65.3203669,47.8258498 C65.3203669,44.1507109 62.3239819,41.1715736 58.6275659,41.1715736 C54.9311498,41.1715736 51.9347648,44.1507109 51.9347648,47.8258498 C51.9347648,51.5009888 54.9311498,54.4801261 58.6275659,54.4801261 C62.3239819,54.4801261 65.3203669,51.5009888 65.3203669,47.8258498 Z M42.0330133,47.8258498 C42.0330133,44.1507109 39.0355788,41.1715736 35.3391628,41.1715736 C31.6427467,41.1715736 28.6463617,44.1507109 28.6463617,47.8258498 C28.6463617,51.5009888 31.6427467,54.4801261 35.3391628,54.4801261 C39.0355788,54.4801261 42.0330133,51.5009888 42.0330133,47.8258498 Z"/>
  </g>
</svg>
