<svg xmlns="http://www.w3.org/2000/svg" width="11" height="13" viewBox="0 0 11 13">
  <g fill="none" fill-rule="evenodd">
    <path fill="#DCE4F7" d="M5.49999999,0 L11,3.25 L11,9.74999999 L5.5,13 L3.51106529e-15,9.74999999 L0,3.25 L5.49999999,0 Z M3.5,4 C2.39767808,5.10232192 2.3954305,6.8954305 3.5,8 L5.5,10 L7.5,8 C8.60232192,6.89767808 8.6045695,5.1045695 7.5,4 C6.39767808,2.89767808 4.6045695,2.8954305 3.5,4 Z"/>
    <path fill="#131627" fill-opacity=".36" d="M4.5,9 L3.5,8 C2.3954305,6.8954305 2.39767808,5.10232192 3.5,4 C4.6045695,2.8954305 6.39767808,2.89767808 7.5,4 C8.6045695,5.1045695 8.60232192,6.89767808 7.5,8 L5.5,10 L4.5,9 L0,4.5 L0,3.25 L5.49999999,0 L11,3.25 L11,4.5 L5.5,10 L4.5,9 Z"/>
  </g>
</svg>
